<svg width="50" height="50" viewBox="0 0 50 50" fill="none" xmlns="http://www.w3.org/2000/svg">
<path d="M24.9998 40C19.7915 40 15.1873 37.3333 12.4998 33.3333C12.5623 29.1667 20.8332 26.875 24.9998 26.875C29.1665 26.875 37.4373 29.1667 37.4998 33.3333C34.8123 37.3333 30.2082 40 24.9998 40ZM24.9998 10.4167C28.4582 10.4167 31.2498 13.2083 31.2498 16.6667C31.2498 20.125 28.4582 22.9167 24.9998 22.9167C21.5415 22.9167 18.7498 20.125 18.7498 16.6667C18.7498 13.2083 21.5415 10.4167 24.9998 10.4167ZM24.9998 4.16667C13.4998 4.16667 4.1665 13.5 4.1665 25C4.1665 36.5 13.4998 45.8333 24.9998 45.8333C36.4998 45.8333 45.8332 36.5 45.8332 25C45.8332 13.4792 36.4582 4.16667 24.9998 4.16667Z" fill="#24272A"/>
</svg>
