<svg width="24" height="24" viewBox="0 0 24 24" xmlns="http://www.w3.org/2000/svg">
<path d="M12 13C9.33 13 4 14.33 4 17V20H20V17C20 14.33 14.67 13 12 13ZM12 4C10.9391 4 9.92172 4.42143 9.17157 5.17157C8.42143 5.92172 8 6.93913 8 8C8 9.06087 8.42143 10.0783 9.17157 10.8284C9.92172 11.5786 10.9391 12 12 12C13.0609 12 14.0783 11.5786 14.8284 10.8284C15.5786 10.0783 16 9.06087 16 8C16 6.93913 15.5786 5.92172 14.8284 5.17157C14.0783 4.42143 13.0609 4 12 4ZM12 14.9C14.97 14.9 18.1 16.36 18.1 17V18.1H5.9V17C5.9 16.36 9 14.9 12 14.9ZM12 5.9C12.557 5.9 13.0911 6.12125 13.4849 6.51508C13.8788 6.9089 14.1 7.44305 14.1 8C14.1 8.55695 13.8788 9.0911 13.4849 9.48492C13.0911 9.87875 12.557 10.1 12 10.1C11.443 10.1 10.9089 9.87875 10.5151 9.48492C10.1212 9.0911 9.9 8.55695 9.9 8C9.9 7.44305 10.1212 6.9089 10.5151 6.51508C10.9089 6.12125 11.443 5.9 12 5.9Z"/>
</svg>
