<svg width="26" height="24" xmlns="http://www.w3.org/2000/svg">
 <metadata>Svg Vector Icons : http://www.onlinewebfonts.com/icon</metadata>

 <g>
  <title>background</title>
  <rect x="-1" y="-1" width="28" height="26" id="canvas_background" fill="none"/>
 </g>
 <g>

  <g stroke="null" id="svg_1">
   <path stroke="null" d="m0.31826,3.285381c0.066422,-0.237582 0.102188,-0.487935 0.206926,-0.707634c0.416403,-0.876233 1.121476,-1.325841 2.094786,-1.328402c1.438251,-0.0051 2.879063,-0.00255 4.317304,-0.00255c2.219968,0 4.442486,0 6.662454,0c0.068972,0 0.140505,0 0.222249,0c0,0.592674 0,1.175125 0,1.785682c-0.071533,0 -0.145616,0 -0.217138,0c-3.627564,0 -7.255128,0 -10.882681,0c-0.091966,0 -0.183932,0.00255 -0.273348,0.022983c-0.181371,0.040877 -0.306553,0.194154 -0.324437,0.378086c-0.0051,0.063872 -0.0051,0.130293 -0.0051,0.194154c0,5.288064 0,10.576127 0,15.86163c0,0.048539 0,0.097077 0.00255,0.145616c0.012772,0.260565 0.178821,0.431725 0.436836,0.444497c0.063872,0.002561 0.130293,0.002561 0.194154,0.002561c3.09364,0 6.187291,0 9.280931,-0.002561c0.140505,0 0.209476,0.040877 0.265676,0.16861c0.263137,0.582452 0.615668,1.108704 1.042293,1.617072c-0.061311,0.007661 -0.099638,0.015322 -0.137954,0.015322c-3.530476,0 -7.060963,0.002561 -10.591449,0c-1.177675,-0.00255 -2.082013,-0.784267 -2.263395,-1.941509c-0.007661,-0.040867 -0.020433,-0.081744 -0.030655,-0.122621c0,-5.512862 0,-11.020624 0,-16.530936z" id="svg_2"/>
   <path stroke="null" d="m18.691078,23.694235c-0.34742,-0.043428 -0.697401,-0.066422 -1.039721,-0.132843c-1.14447,-0.219698 -2.161207,-0.712734 -3.040001,-1.479129c-0.906888,-0.789367 -1.550651,-1.757577 -1.918515,-2.899486c-0.385747,-1.193008 -0.436847,-2.4039 -0.099638,-3.614792c0.600335,-2.161207 1.94662,-3.678652 4.051628,-4.447586c2.171429,-0.794489 4.225338,-0.470052 6.087663,0.894116c1.43314,1.047393 2.253173,2.488194 2.544394,4.23556c0.033216,0.194154 0.051089,0.393408 0.076644,0.587563c0,0.237582 0,0.475153 0,0.712734c-0.028105,0.212037 -0.048539,0.426625 -0.084305,0.636101c-0.222259,1.343735 -0.791939,2.516299 -1.739694,3.499831c-0.952877,0.988632 -2.110119,1.617072 -3.461515,1.877648c-0.347431,0.066411 -0.702523,0.089405 -1.055054,0.132833c-0.107299,-0.00255 -0.214587,-0.00255 -0.321887,-0.00255zm5.142448,-6.498955c-0.00255,-2.730887 -2.23529,-4.963627 -4.971288,-4.971288c-2.725776,-0.007661 -4.963616,2.225079 -4.968727,4.968738c-0.005111,2.718115 2.179091,4.973838 4.973838,4.976399c2.741109,0.00255 4.968738,-2.248073 4.966188,-4.973849l-0.000011,0z" id="svg_3"/>
   <path stroke="null" d="m19.337401,0.375673c0.094516,0.017883 0.189043,0.035766 0.281009,0.0562c0.337209,0.074083 0.618218,0.242693 0.8558,0.490486c0.166049,0.17116 0.337209,0.334659 0.503258,0.503258c0.676968,0.689751 0.674418,1.665611 -0.002561,2.35025c-0.352531,0.355092 -0.702512,0.712734 -1.044832,1.057615c-0.97076,-0.97331 -1.928737,-1.931298 -2.904608,-2.909708c0.421514,-0.40108 0.850689,-0.827705 1.302858,-1.233886c0.201815,-0.181371 0.470052,-0.255465 0.743389,-0.283559c0.035766,-0.005111 0.071533,-0.020444 0.104749,-0.030655c0.053639,0 0.107288,0 0.160938,0z" id="svg_4"/>
   <path stroke="null" d="m11.098753,13.606043c-0.963088,-0.983532 -1.913404,-1.954281 -2.879053,-2.940363c2.672126,-2.649143 5.367257,-5.32128 8.054717,-7.985745c0.963088,0.965649 1.918515,1.921076 2.891825,2.894386c-2.672126,2.661915 -5.359586,5.336602 -8.067489,8.031723z" id="svg_5"/>
   <path stroke="null" d="m6.658827,15.031522c0.337209,-1.226225 0.669307,-2.426894 1.003965,-3.637786c0.904338,0.922221 1.798454,1.836771 2.684909,2.74367c-1.182797,0.286109 -2.424333,0.587563 -3.688874,0.894116z" id="svg_6"/>
   <path stroke="null" d="m19.355285,8.826348c0,0.403631 0,0.7996 0,1.193008c-0.592674,0.025544 -1.180236,0.048539 -1.778021,0.074083c0,-0.411292 0,-0.832805 0,-1.267091c0.592674,0 1.180236,0 1.778021,0z" id="svg_7"/>
   <path stroke="null" d="m18.609334,19.336054c-0.143055,-0.074083 -0.319326,-0.11496 -0.426625,-0.224809c-0.536463,-0.536474 -1.057604,-1.09082 -1.581306,-1.640066c-0.0562,-0.05875 -0.099627,-0.127732 -0.145616,-0.194154c-0.137944,-0.206916 -0.122621,-0.411292 0.05365,-0.587563c0.153277,-0.153277 0.309114,-0.301442 0.467491,-0.447058c0.260576,-0.242682 0.477713,-0.232471 0.722967,0.035766c0.28867,0.314225 0.57223,0.63099 0.8609,0.942655c0.166049,0.181382 0.321887,0.196704 0.526252,0.05365c0.068972,-0.048539 0.135394,-0.107288 0.196704,-0.166049c0.559468,-0.546685 1.113815,-1.095931 1.675833,-1.640066c0.122621,-0.120071 0.258015,-0.22736 0.40107,-0.324437c0.148176,-0.102188 0.296342,-0.094516 0.431736,0.022994c0.145616,0.127732 0.278448,0.268237 0.411292,0.411292c0.089416,0.097077 0.102188,0.217148 0.035766,0.329548c-0.081744,0.137944 -0.163499,0.283559 -0.275898,0.395969c-0.942655,0.932433 -1.895531,1.854654 -2.840736,2.784526c-0.140505,0.137954 -0.298892,0.206926 -0.490486,0.204376c-0.007672,0.015322 -0.015333,0.028094 -0.022994,0.043428z" id="svg_8"/>
  </g>
 </g>
</svg>
