<svg width="24" height="24" xmlns="http://www.w3.org/2000/svg">

 <g>
  <title>background</title>
  <rect fill="none" id="canvas_background" height="26" width="26" y="-1" x="-1"/>
 </g>
 <g>

  <g stroke="null" id="svg_1">
   <path stroke="null" id="svg_2" d="m17.353622,8.988153l-16.060025,0c-0.628754,0 -1.135656,0.506902 -1.135656,1.135656l0,9.080372c0,0.628754 0.506902,1.135656 1.135656,1.135656l16.060025,0c0.628754,0 1.135656,-0.506902 1.135656,-1.135656l0,-9.080372c0,-0.628754 -0.511776,-1.135656 -1.135656,-1.135656zm-0.219333,8.115308c-0.092607,-0.014622 -0.185214,-0.02437 -0.282695,-0.02437c-0.887079,0 -1.608439,0.721361 -1.608439,1.608439c0,0.102355 0.009748,0.199836 0.029244,0.297318l-11.765979,0c0.009748,-0.063363 0.014622,-0.1316 0.014622,-0.199836c0,-0.887079 -0.721361,-1.608439 -1.608439,-1.608439c-0.136474,0 -0.272947,0.019496 -0.399673,0.048741l0,-4.932548c0.126726,0.034118 0.258325,0.048741 0.399673,0.048741c0.887079,0 1.608439,-0.721361 1.608439,-1.608439c0,-0.136474 -0.019496,-0.268073 -0.048741,-0.389925l11.800097,0c-0.019496,0.097481 -0.029244,0.194962 -0.029244,0.297318c0,0.887079 0.721361,1.608439 1.608439,1.608439c0.097481,0 0.190088,-0.009748 0.282695,-0.02437l0,4.878933zm4.064965,-9.294831l0,8.193293c0,0.151096 -0.019496,0.297318 -0.063363,0.438665c-0.209585,0.721361 -1.291626,0.541021 -1.291626,-0.209585l0,-0.502028l0,-7.413444c0,-0.399673 -0.326562,-0.726235 -0.726235,-0.726235l-14.417467,0l-0.477658,0l-0.009748,0c-0.750605,0 -0.930945,-1.082041 -0.209585,-1.291626c0.141348,-0.038992 0.287569,-0.063363 0.438665,-0.063363l15.172946,0c0.877331,-0.004874 1.584069,0.701865 1.584069,1.574321zm2.729473,-2.763591l0,8.193293c0,0.151096 -0.019496,0.297318 -0.063363,0.438665c-0.209585,0.721361 -1.291626,0.541021 -1.291626,-0.209585l0,0l0,-0.502028l0,-7.418318c0,-0.399673 -0.326562,-0.726235 -0.726235,-0.726235l-14.422341,0l-0.477658,0l-0.009748,0c-0.750605,0 -0.930945,-1.082041 -0.209585,-1.291626c0.141348,-0.038992 0.287569,-0.063363 0.438665,-0.063363l15.172946,0c0.882205,0 1.588943,0.706739 1.588943,1.579195zm-8.670951,9.60677c0,0.531272 -0.428917,0.96019 -0.96019,0.96019c-0.531272,0 -0.96019,-0.428917 -0.96019,-0.96019c0,-0.531272 0.428917,-0.96019 0.96019,-0.96019c0.531272,0 0.96019,0.428917 0.96019,0.96019zm-10.064932,0c0,0.531272 -0.428917,0.96019 -0.96019,0.96019c-0.531272,0 -0.96019,-0.428917 -0.96019,-0.96019c0,-0.531272 0.428917,-0.96019 0.96019,-0.96019c0.531272,0 0.96019,0.428917 0.96019,0.96019zm4.074713,-3.460582c-1.910631,0 -3.460582,1.549951 -3.460582,3.460582s1.549951,3.460582 3.460582,3.460582s3.460582,-1.549951 3.460582,-3.460582s-1.549951,-3.460582 -3.460582,-3.460582zm0,5.46382c-1.106411,0 -2.003238,-0.896827 -2.003238,-2.003238s0.896827,-2.003238 2.003238,-2.003238s2.003238,0.896827 2.003238,2.003238s-0.901701,2.003238 -2.003238,2.003238z"/>
  </g>
  <g id="svg_3"/>
  <g id="svg_4"/>
  <g id="svg_5"/>
  <g id="svg_6"/>
  <g id="svg_7"/>
  <g id="svg_8"/>
  <g id="svg_9"/>
  <g id="svg_10"/>
  <g id="svg_11"/>
  <g id="svg_12"/>
  <g id="svg_13"/>
  <g id="svg_14"/>
  <g id="svg_15"/>
  <g id="svg_16"/>
  <g id="svg_17"/>
 </g>
</svg>
