<svg width="24" height="24" viewBox="0 0 24 24" xmlns="http://www.w3.org/2000/svg">
<g clip-path="url(#clip0)">
<path d="M2.54735 17.4639C2.36514 17.6461 2.14845 17.7939 1.91699 17.8923V19.1481V21.2263C1.91699 21.7237 2.32081 22.1226 2.81328 22.1226H4.83239C5.32978 22.1226 5.72868 21.7188 5.72868 21.2263V19.1481V16.4987V14.4205C5.72868 14.3761 5.72376 14.3318 5.71883 14.2924L2.54735 17.4639Z"/>
<path d="M23.4574 4.46771C23.4377 4.46771 23.418 4.46771 23.3934 4.46771C22.0341 4.53173 20.67 4.59575 19.3108 4.65977C19.0991 4.66962 18.8922 4.67947 18.774 4.93556C18.6558 5.18671 18.7888 5.32953 18.9365 5.47727C19.3551 5.89586 19.7688 6.31939 20.1923 6.72813L19.7294 7.19105L15.962 10.9584L15.6272 11.2933L14.8047 12.1157L11.5643 15.3561L11.3772 15.169L7.50148 11.2933L6.67907 10.4709L6.45746 10.2493C6.28017 10.072 6.05363 9.98826 5.82218 9.98826C5.59072 9.98826 5.36418 10.0769 5.18689 10.2493L4.96529 10.4709L0.262238 15.1739C-0.0874127 15.5236 -0.0874127 16.0948 0.262238 16.4445L0.483848 16.6661C0.661135 16.8434 0.887669 16.9271 1.11913 16.9271C1.35059 16.9271 1.57712 16.8385 1.75441 16.6661L5.82218 12.5983L6.00931 12.7855L9.88502 16.6612L10.7074 17.4836L10.929 17.7052C11.1063 17.8825 11.3329 17.9662 11.5643 17.9662C11.7958 17.9662 12.0223 17.8776 12.1996 17.7052L12.4212 17.4836L16.2969 13.6079L17.1193 12.7855L17.4542 12.4506L21.2216 8.68322L21.6796 8.22523L22.9107 9.44655C23.024 9.55981 23.1373 9.68293 23.2998 9.68293C23.3589 9.68293 23.4278 9.66323 23.5017 9.62384C23.7479 9.49087 23.8021 9.27418 23.8119 9.03288C23.871 7.70322 23.9351 6.37848 23.9991 5.04882C24.0139 4.64993 23.8464 4.46771 23.4574 4.46771Z"/>
<path d="M9.35814 10.205C9.74719 10.3921 10.1609 10.4906 10.5795 10.5546C10.9094 10.6088 10.9193 10.6236 10.9242 10.9634C10.9242 11.121 10.9291 11.2736 10.9291 11.4312C10.9291 11.6282 11.0276 11.7415 11.2246 11.7464C11.456 11.7513 11.6826 11.7513 11.914 11.7464C12.1012 11.7415 12.1997 11.638 12.1997 11.4509C12.1997 11.2391 12.2095 11.0274 12.1997 10.8107C12.1898 10.594 12.2834 10.4857 12.4902 10.4266C12.9679 10.2936 13.3767 10.0375 13.6918 9.65833C14.5635 8.59953 14.2286 7.04826 12.9925 6.36373C12.6035 6.14704 12.1947 5.98453 11.786 5.81709C11.5496 5.7186 11.3231 5.60533 11.1261 5.44282C10.7321 5.12764 10.806 4.6204 11.2689 4.41849C11.397 4.36432 11.5348 4.34462 11.6777 4.33477C12.2095 4.30522 12.7168 4.40371 13.2043 4.63517C13.4456 4.75336 13.5244 4.71397 13.6081 4.46281C13.6918 4.19688 13.7657 3.93095 13.8445 3.66009C13.8987 3.4828 13.8347 3.35968 13.6623 3.28581C13.352 3.14792 13.0319 3.04943 12.702 3.00018C12.2637 2.93124 12.2637 2.93124 12.2637 2.49294C12.2588 1.87244 12.2588 1.87244 11.6432 1.87244C11.5545 1.87244 11.461 1.87244 11.3723 1.87244C11.0818 1.88229 11.0325 1.93153 11.0276 2.22209C11.0227 2.35505 11.0276 2.48309 11.0276 2.61606C11.0276 3.00511 11.0227 3.00018 10.6533 3.13315C9.75704 3.45818 9.20055 4.06884 9.14145 5.04884C9.08728 5.91559 9.54035 6.50162 10.2495 6.92514C10.6878 7.18615 11.1753 7.34374 11.6383 7.54565C11.8205 7.62444 11.9928 7.71801 12.1455 7.84113C12.5936 8.21048 12.5099 8.82606 11.9781 9.05752C11.6924 9.18064 11.397 9.21018 11.0867 9.17571C10.6139 9.11662 10.1559 8.9935 9.72749 8.76696C9.47633 8.634 9.40246 8.66847 9.31874 8.94425C9.24487 9.18064 9.18085 9.41702 9.11683 9.6534C9.02326 9.97843 9.05281 10.0572 9.35814 10.205Z"/>
<path d="M9.89981 18.2913L9.07739 17.4689L7.30451 15.696C7.22572 15.8289 7.1814 15.9865 7.1814 16.1491V16.5036V20.8767V21.2313C7.1814 21.7287 7.58522 22.1276 8.07768 22.1276H10.0968C10.5942 22.1276 10.9931 21.7238 10.9931 21.2313V20.8767V19.03C10.6681 18.9364 10.3677 18.7591 10.1214 18.5129L9.89981 18.2913Z"/>
<path d="M13.2239 18.2913L13.0023 18.5129C12.8398 18.6754 12.6526 18.8084 12.4458 18.9068V20.8767V21.2313C12.4458 21.7287 12.8496 22.1276 13.3421 22.1276H15.3612C15.8586 22.1276 16.2575 21.7238 16.2575 21.2313V20.8767V16.5036V16.149C16.2575 15.9028 16.159 15.6812 15.9965 15.5187L13.2239 18.2913Z"/>
<path d="M18.2569 13.2533L17.922 13.5882L17.7053 13.8049V14.4205V14.844V16.4987V16.9222V19.1432V21.2214C17.7053 21.7188 18.1091 22.1177 18.6016 22.1177H20.6207C21.1181 22.1177 21.517 21.7139 21.517 21.2214V19.1432V16.9271V16.5036V14.8489V14.4254V12.1995V10.1212C21.517 10.0818 21.5121 10.0424 21.5072 10.0031L18.2569 13.2533Z"/>
</g>
<defs>
<clipPath id="clip0">
<rect width="24" height="24"/>
</clipPath>
</defs>
</svg>
