<svg width="24" height="27" xmlns="http://www.w3.org/2000/svg">

 <g>
  <title>background</title>
  <rect fill="none" id="canvas_background" height="29" width="26" y="-1" x="-1"/>
 </g>
 <g>

  <style type="text/css">.st0{fill-rule:evenodd;clip-rule:evenodd;}</style>
  <g stroke="null" id="svg_9">
   <g stroke="null" transform="matrix(0.18953851682400197,0,0,0.21714108990391548,0.012069153073869243,-0.4373267444797939) " id="svg_7">
    <path stroke="null" id="svg_8" d="m15.76522,31.10885l59.52,0c1.87,0 3.39,1.53 3.39,3.39l0,26.78c0,1.86 -1.53,3.39 -3.39,3.39l-59.52,0c-1.86,0 -3.39,-1.53 -3.39,-3.39l0,-26.78c0,-1.86 1.53,-3.39 3.39,-3.39l0,0zm106.38,4.57l-1.12,0.97l4.63,4.63l0,0c0.52,0.52 0.53,1.36 0.01,1.89l-4.59,4.72l4.44,4.62c0.52,0.5 0.55,1.34 0.05,1.87l-4.53,4.91l4.58,4.45c0.03,0.03 0.06,0.05 0.09,0.08c0.53,0.53 0.53,1.38 0,1.9l-4.67,4.67l4.58,4.81l0,0c0.5,0.53 0.49,1.36 -0.03,1.88l-4.62,4.58l1.1,0.95c0.33,0.25 0.55,0.64 0.55,1.08c0,0.74 -0.6,1.35 -1.35,1.35l-33.43,0l0,16.86c0,2.27 -0.93,4.34 -2.43,5.84c-1.5,1.5 -3.57,2.43 -5.84,2.43l-13.32,0l-54.75,0c-2.27,0 -4.34,-0.93 -5.84,-2.43c-1.5,-1.5 -2.43,-3.56 -2.43,-5.84l0,-74.27c0,-2.27 0.93,-4.34 2.43,-5.84c1.49,-1.5 3.56,-2.43 5.84,-2.43l68.08,0c2.27,0 4.34,0.93 5.84,2.43c1.5,1.5 2.43,3.57 2.43,5.84l0,5.69l33.43,0l0,0c0.38,0 0.75,0.16 1.01,0.46c0.48,0.57 0.42,1.41 -0.14,1.9l0,0zm-27.74,5.29c0,-0.55 0.44,-0.99 0.99,-0.99c0.55,0 0.99,0.44 0.99,0.99l0,32.15c0,0.55 -0.44,0.99 -0.99,0.99c-0.55,0 -0.99,-0.44 -0.99,-0.99l0,-32.15l0,0zm6.61,0.05c0,-0.55 0.44,-0.99 0.99,-0.99c0.55,0 0.99,0.44 0.99,0.99l0,36.61c0,0.55 -0.44,0.99 -0.99,0.99c-0.55,0 -0.99,-0.44 -0.99,-0.99l0,-36.61l0,0zm6.61,0.02c0,-0.55 0.44,-0.99 0.99,-0.99c0.55,0 0.99,0.44 0.99,0.99l0,19.56c0,0.55 -0.44,0.99 -0.99,0.99c-0.55,0 -0.99,-0.44 -0.99,-0.99l0,-19.56l0,0zm10.21,-5.03l-29.95,0l0,46.35l29.93,0c-0.25,-0.47 -0.2,-1.07 0.17,-1.5c0.02,-0.03 0.04,-0.05 0.07,-0.07l0,0l4.72,-4.67l-4.58,-4.81c-0.5,-0.53 -0.49,-1.36 0.02,-1.87l0,0l4.63,-4.63l-4.62,-4.5c-0.52,-0.51 -0.54,-1.34 -0.05,-1.87l0,0l4.56,-4.94l-4.49,-4.68c-0.51,-0.53 -0.5,-1.36 0.01,-1.88l4.56,-4.69l-4.71,-4.71c-0.42,-0.42 -0.5,-1.03 -0.27,-1.53l0,0zm-87.3,17.49l-5.85,0l-0.84,2.75l-5.27,0l6.29,-16.71l5.65,0l6.26,16.71l-5.41,0l-0.83,-2.75l0,0zm-1.09,-3.62l-1.82,-6l-1.83,6l3.65,0l0,0zm6.23,-10.34l15.7,0l0,4.13l-5.27,0l0,12.58l-5.16,0l0,-12.58l-5.27,0l0,-4.13l0,0zm18.01,0l6.81,0l2.59,10.16l2.6,-10.16l6.78,0l0,16.71l-4.22,0l0,-12.74l-3.26,12.74l-3.83,0l-3.25,-12.74l0,12.74l-4.22,0l0,-16.71l0,0zm-33.73,57.53l0,-8.73l12.52,0l0,8.73l-12.52,0l0,0zm-8.46,10.07l54.75,0l13.32,0c1.43,0 2.74,-0.59 3.69,-1.54c0.95,-0.95 1.54,-2.26 1.54,-3.69l0,-74.28c0,-1.43 -0.59,-2.75 -1.54,-3.7c-0.95,-0.95 -2.26,-1.54 -3.7,-1.54l-68.06,0c-1.44,0 -2.75,0.59 -3.7,1.54c-0.95,0.95 -1.54,2.26 -1.54,3.7l0,74.28c0,1.44 0.59,2.75 1.54,3.7c0.95,0.94 2.26,1.53 3.7,1.53l0,0zm47.09,-26.23l0,-8.73l12.52,0l0,8.73l-12.52,0l0,0zm-19.32,0l0,-8.73l12.52,0l0,8.73l-12.52,0l0,0zm-19.31,0l0,-8.73l12.52,0l0,8.73l-12.52,0l0,0zm38.63,16.16l0,-8.73l12.52,0l0,8.73l-12.52,0l0,0zm-19.32,0l0,-8.73l12.52,0l0,8.73l-12.52,0l0,0z" class="st0"/>
   </g>
  </g>
 </g>
</svg>
