<svg width="26" height="29.999999999999996" xmlns="http://www.w3.org/2000/svg">

 <g>
  <title>background</title>
  <rect fill="none" id="canvas_background" height="32" width="28" y="-1" x="-1"/>
 </g>
 <g>

  <g stroke="null" id="svg_1">
   <g stroke="null" id="svg_2">
    <path stroke="null" id="svg_3" d="m23.879017,11.461431l-10.954679,-10.541591c-0.43161,-0.415293 -0.997092,-0.623206 -1.562573,-0.623206s-1.131519,0.207914 -1.562573,0.623206l-5.999216,5.771338c-0.86322,0.830585 -0.86322,2.203135 0,3.033721l0.994314,0.982913l2.293589,0l-2.140831,-2.086618c-0.14998,-0.144845 -0.1722,-0.326034 -0.1722,-0.413689s0.022219,-0.262431 0.1722,-0.406741l0.792119,-0.738654l3.764508,3.645703l3.611194,0l-5.570383,-5.386511l3.401222,-3.285462c0.14998,-0.14431 0.324958,-0.171569 0.416057,-0.171569s0.266076,0.018172 0.416057,0.161948l10.955234,10.539987c0.150536,0.144845 0.173311,0.311603 0.173311,0.399793c0,0.087655 -0.038884,0.255482 -0.18942,0.400327l-0.62103,0.58312l0,2.206877l1.768658,-1.686291c0.862665,-0.832189 0.878218,-2.178015 0.014443,-3.0086z"/>
    <path stroke="null" id="svg_4" d="m18.739134,11.696068l-15.494085,0c-1.220396,0 -2.264148,0.946033 -2.264148,2.120291l0,5.638786l19.940726,0l0,-5.638786c0,-1.174257 -0.962096,-2.120291 -2.182492,-2.120291zm-12.343386,5.839217c-0.432721,0 -0.824337,-0.165689 -1.113188,-0.432931c-0.288851,0.267241 -0.681022,0.432931 -1.112632,0.432931c-0.887662,0 -1.608123,-0.692154 -1.608123,-1.54786c0,-0.854637 0.719906,-1.547326 1.608123,-1.547326c0.432166,0 0.824337,0.165155 1.112632,0.432396c0.288851,-0.267241 0.680467,-0.432396 1.113188,-0.432396c0.888217,0 1.608123,0.692689 1.608123,1.547326c0,0.855706 -0.719906,1.54786 -1.608123,1.54786z"/>
    <path stroke="null" id="svg_5" d="m0.980901,21.978435c0,1.174257 1.043197,2.132584 2.264148,2.132584l15.494085,0c1.220396,0 2.183048,-0.958326 2.183048,-2.132584l0,-0.125069l-19.941281,0l0,0.125069z"/>
   </g>
  </g>
  <g id="svg_6"/>
  <g id="svg_7"/>
  <g id="svg_8"/>
  <g id="svg_9"/>
  <g id="svg_10"/>
  <g id="svg_11"/>
  <g id="svg_12"/>
  <g id="svg_13"/>
  <g id="svg_14"/>
  <g id="svg_15"/>
  <g id="svg_16"/>
  <g id="svg_17"/>
  <g id="svg_18"/>
  <g id="svg_19"/>
  <g id="svg_20"/>
 </g>
</svg>
