<svg width="24" height="24" viewBox="0 0 24 24" xmlns="http://www.w3.org/2000/svg">
<path d="M2.71143 15.594C2.44023 14.7126 2.30433 13.7631 2.30433 12.8142C2.30433 8.6784 5.08443 5.1528 8.94873 3.9999V5.1528L14.0343 2.5764L8.94903 0V1.8306C3.99963 3.1188 0.27063 7.5258 0.27063 12.8142C0.27063 13.5597 0.338733 14.3058 0.47403 14.9838L0.67743 13.899L2.71143 15.594Z"/>
<path d="M19.3221 14.4411L18.9831 20.1363L23.7294 17.0178L22.1707 16.0677C22.5093 15.0516 22.6446 13.9668 22.6446 12.8133C22.6446 7.93226 19.4583 3.79616 15.1191 2.23676L15.9327 2.84696L13.4926 3.86396C17.5596 4.81316 20.6109 8.47436 20.6109 12.8133C20.6109 13.5594 20.4753 14.3049 20.3397 14.9829L19.3221 14.4411Z"/>
<path d="M18.2373 18.9837C16.5417 20.8146 14.1696 21.9672 11.4576 21.9672C9.01706 21.9672 6.77936 20.9499 5.15216 19.3908L6.16916 18.8481L1.42346 15.7293L1.76216 21.4245L3.32156 20.475C5.35556 22.6446 8.27126 24 11.4576 24C14.2377 24 16.7466 22.9836 18.7122 21.2883L17.8986 21.5595L18.2373 18.9837Z"/>
<path d="M10.7118 6.44098V7.93258C9.01675 8.27188 8.06755 9.35668 8.06755 10.7127C8.06755 12.2043 9.22045 13.0179 10.8477 13.56C12.0003 13.9677 12.4746 14.3064 12.4746 14.916C12.4746 15.5256 11.864 15.8655 10.9833 15.8655C9.96625 15.8655 9.08485 15.5262 8.40655 15.1875L7.93225 17.0187C8.54245 17.3574 9.55945 17.6289 10.5762 17.6958V19.1883H12.1356V17.5608C13.8981 17.2221 14.9154 16.0689 14.9154 14.7132C14.9154 13.2897 14.1696 12.4752 12.339 11.7981C10.9833 11.3235 10.4409 10.9845 10.4409 10.4424C10.4409 10.0353 10.7796 9.56099 11.7966 9.56099C12.9495 9.56099 13.6272 9.90029 14.0343 10.1037L14.5086 8.34089C13.9662 8.06969 13.2882 7.86629 12.2708 7.79819V6.44249L10.7118 6.44098Z"/>
</svg>
