<svg width="24" height="24" xmlns="http://www.w3.org/2000/svg">
 <style type="text/css">
	.st0{fill-rule:evenodd;clip-rule:evenodd;}
 </style>

 <g>
  <title>background</title>
  <rect fill="none" id="canvas_background" height="26" width="26" y="-1" x="-1"/>
 </g>
 <g>

  <g stroke="null" id="svg_1">
   <path stroke="null" id="svg_2" d="m3.06247,19.38659l0.05583,-10.01626l-1.13003,0l0,12.74604c1.55355,-0.40042 3.11287,-0.65646 4.68375,-0.66608c1.44959,-0.00963 2.90111,0.19251 4.35263,0.68533c-0.90287,-0.73154 -1.90969,-1.26864 -2.98389,-1.619c-1.35334,-0.44085 -2.81641,-0.58715 -4.31606,-0.45817c-0.33882,0.02695 -0.63528,-0.22524 -0.66416,-0.56213c-0.00193,-0.04043 -0.00193,-0.07508 0.00193,-0.10973l0,0l0,0zm8.8997,-19.26055c3.0147,0 5.49614,2.29471 5.7926,5.23048c0.81624,-0.00193 2.0406,0.04043 2.60465,0.12321c0.30609,0.04428 0.52363,0.30801 0.52363,0.60833l0,0l0,2.05215l0.00193,0l1.66713,0c0.33882,0 0.6141,0.27529 0.6141,0.6141l0,14.16291c0,0.34074 -0.27529,0.61603 -0.6141,0.61603c-0.0693,0 -0.13668,-0.01155 -0.20021,-0.03273c-1.71526,-0.4909 -3.41704,-0.81624 -5.10535,-0.82779c-1.64403,-0.01155 -3.28806,0.27914 -4.93979,1.00682c-0.10203,0.06738 -0.22331,0.10396 -0.35037,0.10396c-0.12321,0.00193 -0.24641,-0.03465 -0.35037,-0.10396c-1.6498,-0.72961 -3.29383,-1.01837 -4.93979,-1.00682c-1.68638,0.01155 -3.38816,0.33689 -5.10535,0.82779c-0.0616,0.02118 -0.12898,0.03273 -0.19828,0.03273c-0.33112,0 -0.6064,-0.27336 -0.6064,-0.6141l0,-14.16483c0,-0.33882 0.27529,-0.6141 0.6141,-0.6141l1.75183,0l0.01155,-2.05407c0.00193,-0.29646 0.20984,-0.53903 0.48897,-0.5987l0,0c0.53133,-0.11166 1.75953,-0.17711 2.55267,-0.19058c0.32534,-2.90881 2.79138,-5.1708 5.78683,-5.1708l0,0l0,0zm5.78875,6.46254c-0.29646,2.71053 -2.45257,4.86086 -5.16502,5.15155l0,9.22119c1.0434,-0.69688 2.1099,-1.26864 3.20528,-1.65943c1.24939,-0.4447 2.53342,-0.65646 3.86366,-0.55058l0,-9.9046l0,0c-0.00385,-0.02888 -0.0077,-0.0616 -0.0077,-0.0924c0,-0.0308 0.00193,-0.0616 0.0077,-0.0924l0,-2.02905c-0.39657,-0.0385 -1.21281,-0.0539 -1.90392,-0.04428l0,0zm-6.39516,5.15347c-2.74326,-0.28491 -4.92054,-2.47374 -5.18812,-5.22278c-0.66993,0.00193 -1.43612,0.0308 -1.80959,0.08278l-0.0693,12.18584c1.42457,-0.05005 2.81834,0.12898 4.12932,0.55828c1.0434,0.34074 2.03097,0.83742 2.93769,1.4958l0,0l0,-9.09991l0,0zm1.82691,10.29925c1.35912,-0.42737 2.71631,-0.60255 4.07157,-0.59485c1.57088,0.00963 3.1302,0.26759 4.68375,0.66801l0,-12.74411l-1.05303,0l0,10.07208c0,0.34074 -0.27529,0.6141 -0.6141,0.6141c-0.05005,0 -0.09625,-0.00578 -0.14246,-0.0154c-1.34564,-0.21176 -2.65085,-0.03658 -3.92334,0.41775c-1.02415,0.36577 -2.03097,0.91249 -3.0224,1.58243l0,0l0,0zm0.4832,-12.60551l-3.40741,0l0,-0.57368l0.64106,0l0,-3.50367l-0.64106,0l0,-0.45625l1.59205,0c0.40234,0 0.79891,-0.04813 1.18971,-0.14631l0,4.10622l0.62566,0l0,0.57368l0,0l0,0zm-1.47462,-7.3115c0.26374,0 0.47165,0.077 0.62373,0.22716c0.15016,0.15016 0.22524,0.35807 0.22524,0.62373c0,0.26951 -0.12898,0.51015 -0.38887,0.71998c-0.25989,0.20984 -0.56405,0.31572 -0.90672,0.31572c-0.25989,0 -0.46395,-0.07315 -0.6218,-0.21754c-0.15786,-0.14631 -0.23679,-0.33689 -0.23679,-0.57368c0,-0.29839 0.12898,-0.55443 0.38502,-0.77196c0.25411,-0.21561 0.56213,-0.32342 0.92019,-0.32342l0,0l0,0z" class="st0"/>
  </g>
 </g>
</svg>
