<?xml version="1.0" encoding="utf-8"?>
<!-- Generator: Adobe Illustrator 26.0.1, SVG Export Plug-In . SVG Version: 6.00 Build 0)  -->
<svg version="1.1" id="Layer_1" xmlns="http://www.w3.org/2000/svg" xmlns:xlink="http://www.w3.org/1999/xlink" x="0px" y="0px" width="20" height="20"
	 viewBox="0 0 24 24" style="enable-background:new 0 0 24 24;" xml:space="preserve">
<style type="text/css">
	.st0b{fill:#8E8D8D;}
	.st1b{fill:#B2AAAA;}
	.st2b{fill:#E89E5B;}
	.st3b{fill:#CD7F32;}
	.st4b{fill:#FFFFFF;}
</style>
<path class="st0b"  d="M19.5,0h-5L7.3,10.4h5L19.5,0z"/>
<path class="st1b" d="M4.5,0h5l7.2,10.4h-5L4.5,0z"/>
<path class="st2b" d="M12,4c5.5,0,10,4.5,10,10.1S17.5,24,12,24S2,19.5,2,13.9S6.5,4,12,4z"/>
<path class="st3b" d="M12,6.7c-4,0-7.2,3.3-7.2,7.3S8,21.2,12,21.2s7.2-3.3,7.2-7.3S16,6.7,12,6.7z M12,19.4c-3,0-5.4-2.4-5.4-5.5
	S9,8.5,12,8.5s5.4,2.4,5.4,5.5S15,19.4,12,19.4z"/>
<g>
	<g>
		<path class="st4b" d="M8.9,16.6l0.8-1.2c0.5,0.5,1.2,0.8,1.9,0.8c0.9,0,1.5-0.3,1.5-0.9c0-0.7-0.5-1.1-2.4-1.1v-1.3
			c1.5,0,2.1-0.4,2.1-1.1c0-0.6-0.5-0.9-1.2-0.9c-0.6,0-1.1,0.3-1.7,0.7l-0.9-1.1c0.8-0.6,1.7-1,2.7-1c1.7,0,2.9,0.8,2.9,2.2
			c0,0.8-0.6,1.4-1.5,1.8v0c1,0.3,1.8,0.9,1.8,1.9c0,1.5-1.5,2.3-3.1,2.3C10.5,17.7,9.5,17.2,8.9,16.6z"/>
	</g>
</g>
</svg>
