<?xml version="1.0" encoding="utf-8"?>
<!-- Generator: Adobe Illustrator 26.0.1, SVG Export Plug-In . SVG Version: 6.00 Build 0)  -->
<svg version="1.1" id="Layer_1" xmlns="http://www.w3.org/2000/svg" xmlns:xlink="http://www.w3.org/1999/xlink" x="0px" y="0px" width="20" height="20"
	 viewBox="0 0 24 24" style="enable-background:new 0 0 24 24;" xml:space="preserve">
<style type="text/css">
	.st0s{fill:#2F8BBA;}
	.st1s{fill:#4CB7E0;}
	.st2s{fill:#DBDBDB;}
	.st3s{fill:#C4C4C4;}
	.st4s{fill:#FFFFFF;}
</style>
<path class="st0s" d="M19.5,0h-5L7.3,10.4h5L19.5,0z"/>
<path class="st1s" d="M4.5,0h5l7.2,10.4h-5L4.5,0z"/>
<path class="st2s" d="M12,4c5.5,0,10,4.5,10,10.1S17.5,24,12,24S2,19.5,2,13.9S6.5,4,12,4z"/>
<path class="st3s" d="M12,6.7c-4,0-7.2,3.3-7.2,7.3S8,21.2,12,21.2s7.2-3.3,7.2-7.3S16,6.7,12,6.7z M12,19.4c-3,0-5.4-2.4-5.4-5.5
	S9,8.5,12,8.5s5.4,2.4,5.4,5.5S15,19.4,12,19.4z"/>
<g>
	<g>
		<path class="st4s" d="M9.1,16.5c2.3-1.9,3.8-3.2,3.8-4.4c0-0.8-0.5-1.2-1.3-1.2c-0.6,0-1.1,0.4-1.6,0.8l-1-1
			c0.8-0.8,1.6-1.3,2.8-1.3c1.7,0,2.8,1,2.8,2.5c0,1.3-1.4,2.8-2.9,4.1c0.5,0,1-0.1,1.4-0.1H15v1.5H9.1V16.5z"/>
	</g>
</g>
</svg>
