<?xml version="1.0" encoding="utf-8"?>
<!-- Generator: Adobe Illustrator 26.0.1, SVG Export Plug-In . SVG Version: 6.00 Build 0)  -->
<svg version="1.1" id="Layer_1" xmlns="http://www.w3.org/2000/svg" xmlns:xlink="http://www.w3.org/1999/xlink" x="0px" y="0px" height="20px" width="20px"
	 viewBox="0 0 20 20" style="enable-background:new 0 0 20 20;" xml:space="preserve">
<style type="text/css">
	.st0g{fill:#BF3B2C;}
	.st1g{fill:#E2584D;}
	.st2g{fill:#FED26F;}
	.st3g{fill:#F3BE47;}
	.st4g{fill:#FFFFFF;}
</style>
<path class="st0g" d="M15.7,0h-4.2l-6,8.7h4.2L15.7,0z"/>
<path class="st1g" d="M3.3,0h4.2l6,8.7H9.3L3.3,0z"/>
<path class="st2g" d="M9.5,3.3c4.6,0,8.3,3.7,8.3,8.4S14.1,20,9.5,20s-8.3-3.8-8.3-8.3S4.9,3.3,9.5,3.3z"/>
<path class="st3g" d="M9.5,5.6c-3.3,0-6,2.8-6,6.1s2.7,6,6,6s6-2.7,6-6.1S12.8,5.6,9.5,5.6z M9.5,16.2c-2.5,0-4.5-2-4.5-4.6
	s2-4.5,4.5-4.5s4.5,2,4.5,4.6S12,16.2,9.5,16.2z"/>
<g>
	<g>
		<path class="st4g" d="M7.3,13.4h1.8V9.6H7.7V8.7C8.6,8.5,9,8.3,9.5,8.1h1.1v5.3h1.5v1.2H7.3V13.4z"/>
	</g>
</g>
</svg>
