<svg viewBox="0 0 24 24" fill="none" xmlns="http://www.w3.org/2000/svg">
<path d="M17.5693 7.2818C17.6572 7.35756 17.6966 7.45756 17.6905 7.57877L15.8754 16.2363C15.8148 16.5333 15.636 16.6818 15.339 16.6818C15.2239 16.6818 15.1178 16.6484 15.0178 16.5787L12.3663 14.6363L10.8814 16.0302C10.7966 16.0999 10.7087 16.1333 10.6178 16.1333C10.4117 16.1333 10.2754 16.0454 10.2057 15.8696L9.15417 12.6969L6.54812 11.8848C6.38751 11.8394 6.2966 11.7242 6.27539 11.5424C6.27539 11.3606 6.3663 11.2333 6.54812 11.1666C13.6754 8.49997 17.2632 7.16968 17.3087 7.16968C17.3935 7.16968 17.4814 7.20604 17.5693 7.2818ZM15.639 8.96664C15.642 8.94846 15.6451 8.93331 15.6451 8.92725C15.6451 8.85755 15.5966 8.82422 15.4966 8.82422C15.4723 8.82422 13.5693 10.0363 9.78447 12.4575L10.5845 15.0727L10.7451 13.406C14.0026 10.4666 15.6329 8.98482 15.639 8.96664Z" fill="white"/>
<path d="M22.4455 7.68179C23.0122 9.05149 23.2971 10.4909 23.2971 12C23.2971 13.5091 23.0122 14.9485 22.4455 16.3182C21.8789 17.6879 21.0577 18.9121 19.9849 19.9848C18.9122 21.0575 17.688 21.8788 16.3183 22.4454C14.9486 23.0121 13.5092 23.2969 12.0001 23.2969C10.491 23.2969 9.05161 23.0121 7.68191 22.4454C6.31222 21.8788 5.08797 21.0575 4.01525 19.9848C2.94252 18.9121 2.12131 17.6879 1.55464 16.3182C0.984943 14.9485 0.703125 13.5091 0.703125 12C0.703125 10.4909 0.987973 9.05149 1.55464 7.68179C2.12131 6.31209 2.94252 5.08785 4.01525 4.01512C5.08797 2.9424 6.31222 2.12118 7.68191 1.55452C9.05161 0.987851 10.491 0.703003 12.0001 0.703003C13.5092 0.703003 14.9486 0.987851 16.3183 1.55452C17.688 2.12118 18.9122 2.9424 19.9849 4.01512C21.0577 5.08785 21.8789 6.31209 22.4455 7.68179ZM17.688 7.57876C17.6971 7.45755 17.6546 7.35755 17.5668 7.28179C17.4789 7.20603 17.394 7.16664 17.3092 7.16664C17.2637 7.16664 13.6759 8.49997 6.54858 11.1636C6.36676 11.2333 6.27585 11.3575 6.27585 11.5394C6.3001 11.7212 6.391 11.8363 6.54858 11.8818L9.15464 12.6939L10.2062 15.8697C10.2759 16.0454 10.4122 16.1333 10.6183 16.1333C10.7092 16.1333 10.7971 16.1 10.8819 16.0303L12.3668 14.6363L15.0183 16.5788C15.1183 16.6485 15.2243 16.6818 15.3395 16.6818C15.6365 16.6818 15.8152 16.5333 15.8759 16.2363L17.688 7.57876Z" fill="#2CA5E0"/>
<path d="M15.6457 8.92729C15.6457 8.93638 15.6427 8.9485 15.6397 8.96668C15.6366 8.98486 14.0033 10.4637 10.7458 13.403L10.5852 15.0697L9.78516 12.4546C13.57 10.0333 15.473 8.82123 15.4972 8.82123C15.5942 8.82426 15.6457 8.85759 15.6457 8.92729Z" fill="#2CA5E0"/>
</svg>
