<svg viewBox="0 0 22 22" fill="none" xmlns="http://www.w3.org/2000/svg">
<path d="M10.2973 0.877338C7.86919 1.05781 5.65434 2.05624 3.91528 3.75546C1.62778 5.98671 0.530904 9.14609 0.936372 12.3195C1.44262 16.2875 4.24106 19.5922 8.08481 20.7617C11.0567 21.6664 14.3637 21.1297 16.8832 19.3367C19.9793 17.1312 21.5895 13.4727 21.1114 9.72734C20.6051 5.75937 17.8067 2.45468 13.9629 1.28515C12.8192 0.935932 11.4856 0.788276 10.2973 0.877338ZM11.0731 7.17968C11.5934 7.23124 11.8536 7.31327 11.9707 7.46562C12.0012 7.50781 12.0504 7.61093 12.0786 7.69531C12.1395 7.87343 12.1418 8.07734 12.1043 9.60078C12.0809 10.5523 12.095 10.8453 12.1723 11.0562C12.2637 11.2977 12.4653 11.4078 12.6434 11.3164C12.8051 11.232 13.1825 10.8172 13.4286 10.4492C13.9981 9.60546 14.345 8.95156 14.7622 7.9414C14.8465 7.74218 14.959 7.61093 15.0762 7.58046C15.1231 7.5664 15.7864 7.55468 16.602 7.55234L18.0434 7.54765L18.1653 7.59921C18.3223 7.66952 18.3832 7.76093 18.3832 7.92734C18.3832 8.24374 18.0528 8.89296 17.4856 9.68749C17.4082 9.79765 17.1153 10.1867 16.8364 10.5547C16.22 11.3656 16.0864 11.5555 15.9926 11.7523C15.8754 12.0008 15.9036 12.2047 16.0887 12.4461C16.1426 12.5141 16.4145 12.7883 16.6934 13.0555C17.4739 13.8031 17.8278 14.1969 18.1161 14.6281C18.3223 14.9398 18.402 15.1695 18.3692 15.3664C18.3528 15.4742 18.245 15.6031 18.1231 15.6664C17.9778 15.7391 17.7551 15.7531 16.5293 15.7695L15.3692 15.7859L15.1817 15.7227C14.7036 15.5633 14.3848 15.2984 13.6606 14.4594C13.2598 13.9953 12.9622 13.768 12.7559 13.7656C12.5661 13.7656 12.3247 14.0187 12.2215 14.3328C12.1512 14.5437 12.1254 14.7055 12.1043 15.0711C12.0786 15.5023 12.027 15.6031 11.7622 15.7133C11.6661 15.7555 10.4707 15.7695 10.1543 15.7367C9.51919 15.6664 8.9309 15.4672 8.34731 15.1227C7.50122 14.6258 6.98325 14.1805 6.42778 13.4727C5.46215 12.2398 4.80356 11.1898 4.00434 9.60546C3.69497 8.98906 3.33168 8.19218 3.27309 8.00234C3.2145 7.80546 3.29887 7.64374 3.49106 7.58281C3.55668 7.56171 3.92231 7.54999 4.76606 7.53827L5.94965 7.52656L6.08794 7.57812C6.3059 7.66249 6.39731 7.77031 6.54497 8.1289C6.67153 8.43124 7.35356 9.79999 7.56684 10.182C7.78481 10.5687 8.01684 10.8922 8.21606 11.0844C8.46215 11.3258 8.57231 11.3844 8.74575 11.3703C8.8934 11.3562 8.93325 11.3234 9.02465 11.1242C9.24731 10.6437 9.28247 9.01953 9.08325 8.38203C8.9684 8.01874 8.79731 7.88046 8.32387 7.77968C8.24184 7.76093 8.24184 7.73281 8.31684 7.62265C8.49965 7.36015 8.82544 7.23359 9.44653 7.18202C9.78637 7.1539 10.7942 7.15156 11.0731 7.17968Z" fill="#45668E"/>
</svg>
