<svg width="24" height="24" xmlns="http://www.w3.org/2000/svg">
 <style type="text/css">.st0{fill-rule:evenodd;clip-rule:evenodd;}</style>

 <g>
  <title>background</title>
  <rect fill="none" id="canvas_background" height="26" width="26" y="-1" x="-1"/>
 </g>
 <g>

  <g stroke="null" id="svg_1">
   <path stroke="null" id="svg_2" d="m16.318544,21.571619l0.923755,-4.689104l0.93516,1.410343c2.014775,-0.809712 3.14571,-2.142124 3.314875,-4.194914c1.655537,2.892913 0.65005,5.487411 -1.446457,7.006096l0.954167,1.436953l-4.681501,-0.969373l0,0l0,0l0,0zm-14.94355,-4.789843l13.28231,-13.28231l6.905357,6.905357l-13.28231,13.28231l-6.905357,-6.905357l0,0zm8.066704,-5.221309c1.123332,-1.123332 2.940431,-1.123332 4.065664,0c1.123332,1.123332 1.123332,2.940431 0,4.065664c-1.123332,1.123332 -2.940431,1.123332 -4.065664,0c-1.125233,-1.125233 -1.125233,-2.942332 0,-4.065664l0,0zm-4.795545,4.052359l8.830798,-8.830798c0.562616,0.562616 1.478769,0.562616 2.039485,0l2.731351,2.72945c-0.562616,0.562616 -0.562616,1.478769 0,2.039485l-8.830798,8.832698c-0.562616,-0.562616 -1.478769,-0.562616 -2.039485,0l-2.731351,-2.72945c0.562616,-0.562616 0.562616,-1.478769 0,-2.041385l0,0l0,0zm5.840947,-14.312507l-0.923755,4.689104l-0.93516,-1.410343c-2.014775,0.809712 -3.14571,2.142124 -3.314875,4.194914c-1.655537,-2.892913 -0.65005,-5.487411 1.446457,-7.006096l-0.952266,-1.436953l4.679601,0.969373l0,0l0,0l0,0z" class="st0"/>
  </g>
 </g>
</svg>
